<svg version="1.1" xmlns="http://www.w3.org/2000/svg" xmlns:xlink="http://www.w3.org/1999/xlink">
<defs>
<symbol id="icon-delivery" viewBox="0 0 70 42">
<title>delivery</title>
<path d="M61.25 25.3464C60.646 25.3464 60.1562 25.8362 60.1562 26.4402V34.1041H58.4161C57.9872 30.3105 54.5643 27.583 50.7709 28.0118C47.5681 28.3738 45.0408 30.9013 44.6786 34.1041H21.875V2.38533H60.1562V5.82518C60.1562 6.4292 60.646 6.91893 61.25 6.91893C61.854 6.91893 62.3438 6.4292 62.3438 5.82518V1.29158C62.3438 0.687557 61.854 0.19783 61.25 0.19783H20.7812C20.1772 0.19783 19.6875 0.687557 19.6875 1.29158V2.38533H7.16187C4.41615 2.38889 2.19105 4.61385 2.1875 7.35971V8.94783C2.1875 9.55186 2.67723 10.0416 3.28125 10.0416H4.55328L3.71875 20.0658C1.53467 20.6343 0.00765625 22.6028 0 24.8597V34.1041C0 34.7081 0.489727 35.1978 1.09375 35.1978H3.30859C3.60842 39.1091 7.02229 42.0368 10.9335 41.737C14.4281 41.4691 17.2047 38.6924 17.4727 35.1978C17.4825 35.1978 17.4902 35.2033 17.5 35.2033H19.6875C19.6875 35.8073 20.1772 36.2971 20.7812 36.2971H44.7781C45.5573 40.0356 49.2197 42.4346 52.9583 41.6555C55.6512 41.0942 57.7553 38.99 58.3166 36.2971H61.25C61.854 36.2971 62.3438 35.8073 62.3438 35.2033V26.4402C62.3438 25.836 61.854 25.3464 61.25 25.3464ZM10.3906 39.5728C7.67238 39.5728 5.46875 37.3692 5.46875 34.651C5.46875 31.9327 7.67238 29.7291 10.3906 29.7291C13.1089 29.7291 15.3125 31.9327 15.3125 34.651C15.3095 37.368 13.1076 39.5698 10.3906 39.5728ZM19.6875 33.0103H17.5C17.4359 33.017 17.3724 33.0298 17.3108 33.0486C16.4311 29.2269 12.62 26.842 8.7984 27.7216C6.16328 28.3281 4.10143 30.3786 3.48031 33.0103H2.1875V24.8597C2.18928 23.3214 3.43602 22.0746 4.97437 22.0728H19.6875V33.0103ZM19.6875 19.8853H5.92812L6.74844 10.0416H19.6875V19.8853ZM19.6875 7.85408H4.375V7.35971C4.37678 5.82135 5.62352 4.57461 7.16187 4.57283H19.6875V7.85408ZM56.2673 35.1541C56.1267 37.6563 54.0545 39.6121 51.5484 39.6078H51.5473C49.2525 39.6028 47.2931 37.95 46.9011 35.6889C47.0928 35.354 47.0709 34.9378 46.8453 34.6247C46.9915 32.023 49.2192 30.0322 51.8211 30.1783C54.4228 30.3245 56.4136 32.5522 56.2673 35.1541Z" fill="#333333"/>
<path d="M60.1562 8.94783H44.8438C44.2397 8.94783 43.75 9.43756 43.75 10.0416C43.75 10.6456 44.2397 11.1353 44.8438 11.1353H60.1562C60.7603 11.1353 61.25 10.6456 61.25 10.0416C61.25 9.43756 60.7603 8.94783 60.1562 8.94783Z" fill="#333333"/>
<path d="M62.3438 20.9791H38.2812C37.6772 20.9791 37.1875 21.4688 37.1875 22.0728C37.1875 22.6769 37.6772 23.1666 38.2812 23.1666H62.3438C62.9478 23.1666 63.4375 22.6769 63.4375 22.0728C63.4375 21.4688 62.9478 20.9791 62.3438 20.9791Z" fill="#333333"/>
<path d="M60.1562 14.4166H48.125C47.521 14.4166 47.0312 14.9063 47.0312 15.5103C47.0312 16.1144 47.521 16.6041 48.125 16.6041H60.1562C60.7603 16.6041 61.25 16.1144 61.25 15.5103C61.25 14.9063 60.7603 14.4166 60.1562 14.4166Z" fill="#333333"/>
<path d="M64.5312 11.1353H66.7188C67.3228 11.1353 67.8125 10.6456 67.8125 10.0416C67.8125 9.43756 67.3228 8.94783 66.7188 8.94783H64.5312C63.9272 8.94783 63.4375 9.43756 63.4375 10.0416C63.4375 10.6456 63.9272 11.1353 64.5312 11.1353Z" fill="#333333"/>
<path d="M67.8125 20.9791H65.625C65.021 20.9791 64.5312 21.4688 64.5312 22.0728C64.5312 22.6769 65.021 23.1666 65.625 23.1666H67.8125C68.4165 23.1666 68.9062 22.6769 68.9062 22.0728C68.9062 21.4688 68.4165 20.9791 67.8125 20.9791Z" fill="#333333"/>
<path d="M68.9062 14.4166H64.5312C63.9272 14.4166 63.4375 14.9063 63.4375 15.5103C63.4375 16.1144 63.9272 16.6041 64.5312 16.6041H68.9062C69.5103 16.6041 70 16.1144 70 15.5103C70 14.9063 69.5103 14.4166 68.9062 14.4166Z" fill="#333333"/>
</symbol>

<symbol id="icon-diamond" viewBox="0 0 21 21">
<title>diamond</title>
<path d="M20.1308 6.93303L20.1248 6.88084C20.1137 6.81551 20.0939 6.75244 20.0658 6.69376L17.1246 1.42315C17.1246 1.42315 16.7495 0.906372 16.6604 0.906372H4.12675L0.357375 6.51496L0.31281 6.56663L0.306776 6.59092C0.274934 6.64787 0.248783 6.70852 0.228789 6.7718L0.21347 6.82192C0.170039 6.98236 0.172147 7.15381 0.219505 7.31286L0.237145 7.36919C0.260819 7.43585 0.290064 7.49683 0.324416 7.5511L9.43729 20.4018L9.45586 20.4313C9.50274 20.4984 9.55984 20.5579 9.62947 20.6121L9.68239 20.6488C9.73438 20.685 9.7887 20.7139 9.86761 20.746L9.91914 20.7651C10.0083 20.7904 10.0858 20.8023 10.1615 20.8023C10.238 20.8023 10.3128 20.7909 10.4135 20.762L10.4753 20.7377C10.5356 20.7139 10.5899 20.6845 10.6554 20.6395L10.6962 20.6111C10.7663 20.5558 10.8225 20.4959 10.8536 20.4488L19.9781 7.58469C20.0588 7.46485 20.1114 7.32455 20.1313 7.17643L20.1382 7.10977L20.1419 7.05706L20.1308 6.93303ZM15.238 6.59092L16.5369 3.97448L17.8348 6.59092H15.238ZM14.4591 8.14125H17.5405L12.4045 15.3839L14.4591 8.14125ZM13.6969 5.80646L11.821 2.97348H15.103L13.6969 5.80646ZM7.68815 8.14125H12.6361L10.1615 16.8629L7.68815 8.14125ZM8.17882 6.59092L10.1615 3.59568L12.1441 6.59092H8.17882ZM6.78248 5.57184L5.92277 2.97348H8.50237L6.78248 5.57184ZM7.91933 15.3844L2.78286 8.14125H5.86474L7.91933 15.3844ZM4.43545 3.99257L5.29562 6.59092H2.71555L4.43545 3.99257Z" fill="white"/>
</symbol>

<symbol id="icon-dropdown" viewBox="0 0 12 8">
<title>dropdown</title>
<path d="M6 8L0.803848 0.5L11.1962 0.499999L6 8Z" fill="#333333"/>
</symbol>

<symbol id="icon-eco" viewBox="0 0 14 16">
<title>eco</title>
<path d="M4.70932 1.63C4.70932 1.41333 4.73132 1.28333 5.10265 1.28333H10.0793C10.946 1.28333 11.426 2.02333 11.7727 3.412L12.0527 4.52267H12.8993C13.0527 1.37067 13.186 0 13.186 0C13.186 0 11.0553 0.24 9.79265 0.24H3.42665L0.0173187 0.130667V1.044L1.16732 1.26133C1.97399 1.42133 2.16732 1.592 2.23399 2.332C2.23399 2.332 2.30732 4.512 2.30732 8.092C2.30732 11.682 2.24732 13.832 2.24732 13.832C2.24732 14.4807 1.98732 14.7207 1.18732 14.8807L0.0393187 15.1007V16L3.45932 15.89H9.15932C10.4493 15.89 13.4193 16 13.4193 16C13.4893 15.22 13.9193 11.68 13.9893 11.2907H13.1893L12.3333 13.2307C11.6633 14.7507 10.6827 14.8607 9.59332 14.8607H6.32265C5.23599 14.8607 4.71265 14.434 4.71265 13.494V8.53333C4.71265 8.53333 7.12599 8.53333 7.90598 8.59733C8.51398 8.64 8.88132 8.814 9.07932 9.66267L9.33932 10.7927H10.2793L10.2193 7.94067L10.3473 5.07067H9.41998L9.11998 6.33067C8.93132 7.16 8.79998 7.31067 7.95065 7.39733C6.83998 7.51067 4.74065 7.49067 4.74065 7.49067V1.63333H4.70732L4.70932 1.63Z" fill="#333333"/>
</symbol>

<symbol id="icon-envelope-1" viewBox="0 0 18 12">
<title>envelope</title>
<path d="M0.574002 1.286L8.074 5.315C8.326 5.45 8.652 5.514 8.98 5.514C9.308 5.514 9.634 5.45 9.886 5.315L17.386 1.286C17.875 1.023 18.337 0 17.44 0H0.521002C-0.375998 0 0.0860016 1.023 0.574002 1.286ZM17.613 3.489L9.886 7.516C9.546 7.694 9.308 7.715 8.98 7.715C8.652 7.715 8.414 7.694 8.074 7.516C7.734 7.338 0.941002 3.777 0.386002 3.488C-0.00399834 3.284 1.61606e-06 3.523 1.61606e-06 3.707V11C1.61606e-06 11.42 0.566002 12 1 12H17C17.434 12 18 11.42 18 11V3.708C18 3.524 18.004 3.285 17.613 3.489Z" fill="#333333"/>
</symbol>

<symbol id="icon-envelope-2" viewBox="0 0 16 12">
<title>envelope</title>
<path d="M15.1886 0.0378418H0.811005C0.67544 0.0380007 0.545476 0.0919377 0.449636 0.187815C0.353797 0.283693 0.299911 0.413677 0.299805 0.549242V1.57804C0.299805 1.62544 0.351205 1.67984 0.393205 1.70184L7.9504 6.01844C7.96976 6.0295 7.99171 6.03523 8.014 6.03504C8.03679 6.0351 8.05918 6.02903 8.0788 6.01744L15.4076 1.70604C15.4488 1.68304 15.558 1.62224 15.599 1.59424C15.6486 1.56044 15.6998 1.52984 15.6998 1.46924V0.549042C15.6996 0.413512 15.6457 0.283579 15.5499 0.187745C15.4541 0.0919103 15.3241 0.0380006 15.1886 0.0378418Z" fill="#333333"/>
<path d="M15.6365 3.12922C15.6169 3.118 15.5946 3.11217 15.5719 3.11231C15.5493 3.11245 15.5271 3.11856 15.5075 3.13002L11.3601 5.57022C11.3436 5.57985 11.3295 5.59308 11.3187 5.60892C11.308 5.62477 11.301 5.64282 11.2982 5.66174C11.2954 5.68067 11.297 5.69997 11.3027 5.71823C11.3083 5.73649 11.3181 5.75324 11.3311 5.76722L15.4791 10.2386C15.491 10.2515 15.5055 10.2618 15.5215 10.2688C15.5376 10.2759 15.555 10.2795 15.5725 10.2794C15.6064 10.2794 15.6389 10.2659 15.6628 10.2419C15.6868 10.218 15.7003 10.1855 15.7003 10.1516V3.24022C15.7004 3.21774 15.6946 3.19563 15.6834 3.17614C15.6722 3.15665 15.656 3.14046 15.6365 3.12922Z" fill="#333333"/>
<path d="M10.1648 6.38968C10.1451 6.36824 10.1186 6.3542 10.0898 6.3499C10.061 6.34561 10.0316 6.35132 10.0066 6.36608L8.34415 7.34428C8.24675 7.40056 8.13639 7.43054 8.02391 7.43127C7.91142 7.43201 7.80068 7.40348 7.70255 7.34848L6.23955 6.51268C6.21593 6.49923 6.18865 6.49364 6.16164 6.49674C6.13464 6.49983 6.10932 6.51144 6.08935 6.52988L0.533752 11.6831C0.519187 11.6967 0.508005 11.7135 0.501096 11.7322C0.494186 11.7509 0.491742 11.771 0.493956 11.7908C0.496171 11.8106 0.502983 11.8296 0.513851 11.8464C0.524719 11.8631 0.539341 11.877 0.556552 11.8871C0.642952 11.9379 0.726352 11.9621 0.811152 11.9621H15.0418C15.0667 11.9621 15.091 11.9549 15.1118 11.9412C15.1326 11.9275 15.1489 11.908 15.1588 11.8851C15.1687 11.8623 15.1718 11.8371 15.1676 11.8126C15.1634 11.7881 15.1521 11.7654 15.1352 11.7473L10.1648 6.38968Z" fill="#333333"/>
<path d="M4.86661 5.92028C4.88132 5.90668 4.89263 5.88981 4.89962 5.87102C4.90661 5.85224 4.90909 5.83208 4.90685 5.81217C4.90461 5.79225 4.89772 5.77314 4.88673 5.75638C4.87575 5.73962 4.86097 5.72568 4.84361 5.71568L0.490407 3.22928C0.470979 3.21825 0.448996 3.21252 0.426656 3.21265C0.404316 3.21278 0.382402 3.21877 0.363105 3.23003C0.343809 3.24129 0.327806 3.25742 0.316698 3.2768C0.30559 3.29618 0.299765 3.31814 0.299807 3.34048V9.86448C0.299666 9.8894 0.306834 9.91381 0.320425 9.9347C0.334016 9.95558 0.353433 9.97202 0.376272 9.98198C0.399111 9.99194 0.424369 9.99499 0.448922 9.99074C0.473474 9.98649 0.496241 9.97514 0.514407 9.95808L4.86661 5.92028Z" fill="#333333"/>
</symbol>

<symbol id="icon-facebook" viewBox="0 0 12 20">
<title>facebook</title>
<path d="M7.51341 19.7467V10.8677H10.5088L10.9541 7.39127H7.51341V5.17694C7.51341 4.17377 7.79291 3.48694 9.23266 3.48694H11.057V0.387523C10.1694 0.292396 9.27713 0.246465 8.38441 0.249939C5.73674 0.249939 3.91891 1.86627 3.91891 4.83352V7.38477H0.942993V10.8612H3.92541V19.7467H7.51341Z" fill="#333333"/>
</symbol>

<symbol id="icon-handset" viewBox="0 0 18 18">
<title>handset</title>
<path d="M11.7068 12.425L13.1068 11.025C13.2953 10.8388 13.5339 10.7113 13.7935 10.6581C14.0531 10.6048 14.3226 10.6281 14.5693 10.725L16.2755 11.4063C16.5248 11.5074 16.7385 11.6801 16.8898 11.9026C17.041 12.125 17.1231 12.3873 17.1255 12.6563V15.7813C17.1241 15.9643 17.0856 16.1451 17.0124 16.3128C16.9393 16.4805 16.8329 16.6317 16.6998 16.7573C16.5666 16.8828 16.4095 16.9801 16.2377 17.0433C16.066 17.1065 15.8833 17.1343 15.7005 17.125C3.74426 16.3813 1.33176 6.25628 0.875511 2.38128C0.854331 2.19099 0.873683 1.99837 0.932291 1.81609C0.9909 1.63382 1.08744 1.46602 1.21555 1.32374C1.34367 1.18145 1.50046 1.0679 1.67561 0.990565C1.85076 0.913227 2.0403 0.873851 2.23176 0.875026H5.25051C5.51989 0.875823 5.78287 0.957193 6.00563 1.10867C6.22839 1.26015 6.40074 1.4748 6.50051 1.72503L7.18176 3.43128C7.28192 3.67694 7.30747 3.94668 7.25523 4.20678C7.20299 4.46689 7.07526 4.70584 6.88801 4.89378L5.48801 6.29378C5.48801 6.29378 6.29426 11.75 11.7068 12.425Z" fill="#333333"/>
</symbol>

<symbol id="icon-jewelry" viewBox="0 0 70 70">
<title>jewelry</title>
<g clip-path="url(#clip0_49_109)">
<path d="M25.364 43.713C24.6941 42.5552 23.4471 41.836 22.1097 41.836H17.1584V38.8657C19.493 38.4096 21.3283 36.4293 21.5172 33.9853C21.5608 33.4206 21.1384 32.9276 20.5739 32.8839C20.0056 32.8385 19.5161 33.2627 19.4725 33.8271C19.3387 35.5582 17.872 36.9141 16.133 36.9141C14.286 36.9141 12.7834 35.4115 12.7834 33.5645C12.7834 31.7174 14.286 30.2149 16.133 30.2149C16.7222 30.2149 17.301 30.3696 17.8072 30.6623C18.2974 30.9458 18.9247 30.7784 19.2081 30.2881C19.4917 29.798 19.3242 29.1707 18.8339 28.8872C18.3138 28.5864 17.7466 28.3765 17.1584 28.2631V25.2723C18.5437 24.8358 19.551 23.5393 19.551 22.0117C19.551 20.4819 18.5407 19.1836 17.1521 18.7489L17.1728 16.6178C17.1761 16.2761 17.4179 15.9876 17.7608 15.916C21.4519 15.1461 24.1311 11.8338 24.1311 8.04031C24.1311 3.68472 20.4823 0.00274902 16.1632 -0.00012207C16.1615 -0.00012207 16.1602 -0.00012207 16.1586 -0.00012207C13.0454 1.46484e-05 10.1461 1.97478 8.77196 5.03195C8.53981 5.54847 8.77032 6.1555 9.28684 6.38765C9.8035 6.61939 10.4103 6.38943 10.6425 5.87277C11.6864 3.55074 13.8512 2.0508 16.1586 2.0508H16.1619C19.02 2.05271 22.0803 4.45978 22.0803 8.04044C22.0803 10.8681 20.0876 13.336 17.342 13.9087C16.0479 14.1787 15.135 15.2845 15.1221 16.5981L15.1012 18.7535C13.7193 19.1919 12.7151 20.4866 12.7151 22.0117C12.7151 23.5393 13.7224 24.8358 15.1076 25.2723V28.2629C12.6187 28.7435 10.7326 30.9373 10.7326 33.5645C10.7326 36.1917 12.6187 38.3854 15.1076 38.866V41.836H10.1564C8.81899 41.836 7.57198 42.5552 6.90192 43.713L0.930044 54.0354C0.258345 55.1967 0.258345 56.6395 0.930044 57.8009L6.90206 68.1231C7.57198 69.2807 8.81899 70 10.1564 70H22.1097C23.4471 70 24.6941 69.2807 25.3641 68.123L31.336 57.8006C32.0077 56.6393 32.0077 55.1965 31.336 54.0351L25.364 43.713ZM16.133 20.6445C16.8869 20.6445 17.5002 21.2579 17.5002 22.0117C17.5002 22.7656 16.8869 23.3789 16.133 23.3789C15.3792 23.3789 14.7658 22.7656 14.7658 22.0117C14.7658 21.2579 15.3792 20.6445 16.133 20.6445ZM29.5607 56.7738L23.589 67.0961C23.2844 67.6223 22.7175 67.9492 22.1097 67.9492H10.1564C9.54852 67.9492 8.98155 67.6222 8.67721 67.0961L2.70534 56.774C2.40004 56.246 2.40004 55.5901 2.70534 55.0621L8.67708 44.7399C8.98169 44.2136 9.54852 43.8867 10.1564 43.8867H22.1097C22.7175 43.8867 23.2845 44.2138 23.5889 44.7399L29.5607 55.062C29.866 55.5901 29.866 56.2458 29.5607 56.7738Z" fill="#333333"/>
<path d="M21.2436 49.4465C20.8176 48.7087 20.0236 48.2502 19.1716 48.2502H13.0939C12.2419 48.2502 11.4479 48.7087 11.0219 49.4465L7.98309 54.7102C7.55707 55.4481 7.55707 56.3649 7.98309 57.1028L8.46338 57.9346C8.74666 58.4251 9.37379 58.5927 9.86406 58.3099C10.3545 58.0267 10.5225 57.3996 10.2394 56.9092L9.75906 56.0774C9.69822 55.972 9.69822 55.841 9.75906 55.7356L12.7979 50.4719C12.8587 50.3665 12.9721 50.301 13.0939 50.301H19.1715C19.2933 50.301 19.4066 50.3665 19.4675 50.4719L22.5063 55.7356C22.5671 55.841 22.5671 55.972 22.5063 56.0774L19.4675 61.3411C19.4066 61.4465 19.2933 61.512 19.1715 61.512H13.0939C12.8367 61.5342 12.7175 61.1811 12.6073 61.0109C12.324 60.5201 11.6969 60.3529 11.2066 60.6353C10.7161 60.9185 10.5481 61.5456 10.8311 62.036L11.0219 62.3665C11.4479 63.1043 12.2419 63.5627 13.0939 63.5627H19.1715C20.0235 63.5627 20.8174 63.1043 21.2434 62.3665L24.2823 57.1028C24.7083 56.3649 24.7083 55.4481 24.2823 54.7102L21.2436 49.4465Z" fill="#333333"/>
<path d="M69.0703 54.0352L67.3313 51.0296C67.0478 50.5393 66.4205 50.372 65.9302 50.6556C65.4401 50.9391 65.2725 51.5664 65.5562 52.0567L67.2951 55.0621C67.6004 55.5901 67.6004 56.246 67.2951 56.774L61.3234 67.0963C61.0188 67.6225 60.4519 67.9494 59.8441 67.9494H47.8907C47.2829 67.9494 46.7159 67.6224 46.4116 67.0963L40.4397 56.7741C40.1344 56.2461 40.1344 55.5903 40.4397 55.0623L46.4115 44.74C46.7161 44.2138 47.2829 43.8869 47.8907 43.8869H59.8441C60.4519 43.8869 61.0189 44.2139 61.3232 44.74L63.1832 47.9551C63.4668 48.4454 64.0941 48.6127 64.5842 48.3292C65.0744 48.0456 65.242 47.4183 64.9583 46.9281L63.0983 43.713C62.4285 42.5552 61.1815 41.836 59.8441 41.836H54.8928V38.866C57.3818 38.3855 59.2678 36.1917 59.2678 33.5645C59.2678 30.9373 57.3818 28.7435 54.8928 28.2629V25.2724C56.278 24.8358 57.2854 23.5393 57.2854 22.0117C57.2854 20.4819 56.275 19.1836 54.8865 18.749L54.9072 16.6178C54.9104 16.2761 55.1523 15.9876 55.4952 15.916C59.1863 15.1461 61.8655 11.8339 61.8655 8.04032C61.8655 7.73585 61.848 7.42933 61.8136 7.12936C61.7491 6.56677 61.2407 6.16208 60.6782 6.22729C60.1156 6.29183 59.7117 6.80001 59.7761 7.36274C59.8017 7.5856 59.8145 7.81364 59.8145 8.04032C59.8145 10.8679 57.8219 13.3359 55.0763 13.9086C53.7821 14.1786 52.8692 15.2844 52.8564 16.598L52.8355 18.7533C51.4536 19.1919 50.4494 20.4867 50.4494 22.0117C50.4494 23.5393 51.4568 24.8358 52.842 25.2724V28.2629C50.3531 28.7435 48.467 30.9373 48.467 33.5645C48.467 36.1917 50.3531 38.3855 52.842 38.866V41.836H47.8907C46.5534 41.836 45.3064 42.5552 44.6363 43.713L38.6644 54.0354C37.9927 55.1967 37.9927 56.6395 38.6644 57.8009L44.6364 68.1232C45.3062 69.2809 46.5534 70.0002 47.8907 70.0002H59.8441C61.1815 70.0002 62.4285 69.2809 63.0985 68.1232L69.0704 57.8008C69.742 56.6393 69.742 55.1967 69.0703 54.0352ZM53.8674 20.6446C54.6213 20.6446 55.2346 21.2579 55.2346 22.0117C55.2346 22.7656 54.6213 23.3789 53.8674 23.3789C53.1135 23.3789 52.5002 22.7656 52.5002 22.0117C52.5002 21.2579 53.1135 20.6446 53.8674 20.6446ZM50.5178 33.5645C50.5178 31.7174 52.0203 30.2149 53.8674 30.2149C55.7145 30.2149 57.217 31.7174 57.217 33.5645C57.217 35.4116 55.7145 36.9141 53.8674 36.9141C52.0203 36.9141 50.5178 35.4116 50.5178 33.5645Z" fill="#333333"/>
<path d="M47.0212 6.38764C47.5256 6.61787 48.1442 6.39461 48.3769 5.87275C49.4208 3.55072 51.5856 2.05078 53.8928 2.05078H53.8963C55.3613 2.05174 56.8443 2.66998 57.9651 3.74705C58.3737 4.13971 59.0228 4.12631 59.4149 3.71834C59.8073 3.30996 59.7944 2.66096 59.3862 2.26857C57.8874 0.828242 55.8869 0.00136719 53.8976 0C53.8958 0 53.8946 0 53.893 0C50.7798 0 47.8805 1.97477 46.5065 5.03193C46.2742 5.54846 46.5047 6.15535 47.0212 6.38764Z" fill="#333333"/>
<path d="M56.9058 48.2502H50.8283C49.9762 48.2502 49.1823 48.7087 48.7563 49.4465L45.7175 54.7102C45.2914 55.4481 45.2914 56.3649 45.7175 57.1028L48.7563 62.3665C49.1823 63.1043 49.9762 63.5627 50.8283 63.5627H56.9058C57.7579 63.5627 58.5518 63.1043 58.9778 62.3665L62.0167 57.1028C62.4427 56.3649 62.4427 55.4481 62.0167 54.7102L58.9778 49.4465C58.5518 48.7087 57.7579 48.2502 56.9058 48.2502ZM60.2405 56.0774L57.2017 61.3411C57.1409 61.4465 57.0275 61.512 56.9057 61.512H50.8281C50.7063 61.512 50.593 61.4465 50.5321 61.3411L47.4933 56.0774C47.4325 55.972 47.4325 55.841 47.4933 55.7356L50.5321 50.4719C50.593 50.3665 50.7063 50.301 50.8281 50.301H56.9057C57.0275 50.301 57.1409 50.3665 57.2017 50.4719L60.2405 55.7356C60.3014 55.8411 60.3014 55.972 60.2405 56.0774Z" fill="#333333"/>
</g>
</symbol>

<symbol id="icon-like" viewBox="0 0 17 15">
<title>like</title>
<path d="M8.97342 2.59641C6.21857 -1.65888 0.642853 0.659263 0.642853 5.29469C0.642853 8.77555 8.28685 14.2205 8.97342 14.9285C9.66471 14.2205 16.9286 8.77555 16.9286 5.29469C16.9286 0.694406 11.7334 -1.65888 8.97342 2.59641Z" fill="white"/>
</symbol>

<symbol id="icon-list" viewBox="0 0 70 70">
<title>list</title>
<path d="M50.3125 2.1875H41.5625V1.09375C41.5625 0.489727 41.0728 0 40.4688 0C39.8647 0 39.375 0.489727 39.375 1.09375V2.1875H30.625V1.09375C30.625 0.489727 30.1353 0 29.5312 0C28.9272 0 28.4375 0.489727 28.4375 1.09375V2.1875H19.6875V1.09375C19.6875 0.489727 19.1978 0 18.5938 0C17.9897 0 17.5 0.489727 17.5 1.09375V2.1875H8.75C8.14598 2.1875 7.65625 2.67723 7.65625 3.28125V68.9062C7.65625 69.5103 8.14598 70 8.75 70H50.3125C50.9165 70 51.4062 69.5103 51.4062 68.9062V3.28125C51.4062 2.67723 50.9165 2.1875 50.3125 2.1875ZM49.2188 67.8125H9.84375V4.375H17.5V7.65625C17.5 8.26027 17.9897 8.75 18.5938 8.75C19.1978 8.75 19.6875 8.26027 19.6875 7.65625V4.375H28.4375V7.65625C28.4375 8.26027 28.9272 8.75 29.5312 8.75C30.1353 8.75 30.625 8.26027 30.625 7.65625V4.375H39.375V7.65625C39.375 8.26027 39.8647 8.75 40.4688 8.75C41.0728 8.75 41.5625 8.26027 41.5625 7.65625V4.375H49.2188V67.8125Z" fill="#333333"/>
<path d="M25.1562 12.0312H14.2188C13.6147 12.0312 13.125 12.521 13.125 13.125V24.0625C13.125 24.6665 13.6147 25.1562 14.2188 25.1562H25.1562C25.7603 25.1562 26.25 24.6665 26.25 24.0625V13.125C26.25 12.521 25.7603 12.0312 25.1562 12.0312ZM24.0625 22.9688H15.3125V14.2188H24.0625V22.9688Z" fill="#333333"/>
<path d="M25.1562 27.3438H14.2188C13.6147 27.3438 13.125 27.8335 13.125 28.4375V39.375C13.125 39.979 13.6147 40.4688 14.2188 40.4688H25.1562C25.7603 40.4688 26.25 39.979 26.25 39.375V28.4375C26.25 27.8335 25.7603 27.3438 25.1562 27.3438ZM24.0625 38.2812H15.3125V29.5312H24.0625V38.2812Z" fill="#333333"/>
<path d="M25.1562 42.6562H14.2188C13.6147 42.6562 13.125 43.146 13.125 43.75V54.6875C13.125 55.2915 13.6147 55.7812 14.2188 55.7812H25.1562C25.7603 55.7812 26.25 55.2915 26.25 54.6875V43.75C26.25 43.146 25.7603 42.6562 25.1562 42.6562ZM24.0625 53.5938H15.3125V44.8438H24.0625V53.5938Z" fill="#333333"/>
<path d="M29.5312 14.2188C29.5312 14.8228 30.021 15.3125 30.625 15.3125H43.75C44.354 15.3125 44.8438 14.8228 44.8438 14.2188C44.8438 13.6147 44.354 13.125 43.75 13.125H30.625C30.021 13.125 29.5312 13.6147 29.5312 14.2188Z" fill="#333333"/>
<path d="M43.75 21.875H30.625C30.021 21.875 29.5312 22.3647 29.5312 22.9688C29.5312 23.5728 30.021 24.0625 30.625 24.0625H43.75C44.354 24.0625 44.8438 23.5728 44.8438 22.9688C44.8438 22.3647 44.354 21.875 43.75 21.875Z" fill="#333333"/>
<path d="M30.625 19.6875H36.0938C36.6978 19.6875 37.1875 19.1978 37.1875 18.5938C37.1875 17.9897 36.6978 17.5 36.0938 17.5H30.625C30.021 17.5 29.5312 17.9897 29.5312 18.5938C29.5312 19.1978 30.021 19.6875 30.625 19.6875Z" fill="#333333"/>
<path d="M41.5625 19.6875C42.1665 19.6875 42.6562 19.1978 42.6562 18.5938C42.6562 17.9897 42.1665 17.5 41.5625 17.5H39.375C38.771 17.5 38.2812 17.9897 38.2812 18.5938C38.2812 19.1978 38.771 19.6875 39.375 19.6875H41.5625Z" fill="#333333"/>
<path d="M43.75 28.4375H30.625C30.021 28.4375 29.5312 28.9272 29.5312 29.5312C29.5312 30.1353 30.021 30.625 30.625 30.625H43.75C44.354 30.625 44.8438 30.1353 44.8438 29.5312C44.8438 28.9272 44.354 28.4375 43.75 28.4375Z" fill="#333333"/>
<path d="M43.75 37.1875H30.625C30.021 37.1875 29.5312 37.6772 29.5312 38.2812C29.5312 38.8853 30.021 39.375 30.625 39.375H43.75C44.354 39.375 44.8438 38.8853 44.8438 38.2812C44.8438 37.6772 44.354 37.1875 43.75 37.1875Z" fill="#333333"/>
<path d="M30.625 35H36.0938C36.6978 35 37.1875 34.5103 37.1875 33.9062C37.1875 33.3022 36.6978 32.8125 36.0938 32.8125H30.625C30.021 32.8125 29.5312 33.3022 29.5312 33.9062C29.5312 34.5103 30.021 35 30.625 35Z" fill="#333333"/>
<path d="M41.5625 35C42.1665 35 42.6562 34.5103 42.6562 33.9062C42.6562 33.3022 42.1665 32.8125 41.5625 32.8125H39.375C38.771 32.8125 38.2812 33.3022 38.2812 33.9062C38.2812 34.5103 38.771 35 39.375 35H41.5625Z" fill="#333333"/>
<path d="M43.75 43.75H30.625C30.021 43.75 29.5312 44.2397 29.5312 44.8438C29.5312 45.4478 30.021 45.9375 30.625 45.9375H43.75C44.354 45.9375 44.8438 45.4478 44.8438 44.8438C44.8438 44.2397 44.354 43.75 43.75 43.75Z" fill="#333333"/>
<path d="M43.75 52.5H30.625C30.021 52.5 29.5312 52.9897 29.5312 53.5938C29.5312 54.1978 30.021 54.6875 30.625 54.6875H43.75C44.354 54.6875 44.8438 54.1978 44.8438 53.5938C44.8438 52.9897 44.354 52.5 43.75 52.5Z" fill="#333333"/>
<path d="M30.625 50.3125H36.0938C36.6978 50.3125 37.1875 49.8228 37.1875 49.2188C37.1875 48.6147 36.6978 48.125 36.0938 48.125H30.625C30.021 48.125 29.5312 48.6147 29.5312 49.2188C29.5312 49.8228 30.021 50.3125 30.625 50.3125Z" fill="#333333"/>
<path d="M41.5625 50.3125C42.1665 50.3125 42.6562 49.8228 42.6562 49.2188C42.6562 48.6147 42.1665 48.125 41.5625 48.125H39.375C38.771 48.125 38.2812 48.6147 38.2812 49.2188C38.2812 49.8228 38.771 50.3125 39.375 50.3125H41.5625Z" fill="#333333"/>
<path d="M58.5156 14.2188C56.4014 14.2188 54.6875 15.9327 54.6875 18.0469V50.3125C54.6924 50.3445 54.699 50.3764 54.7072 50.4077C54.7055 50.4357 54.7055 50.4638 54.7072 50.4919L55.8009 57.0544C55.8883 57.5802 56.3421 57.9664 56.875 57.9688H60.1562C60.691 57.9685 61.1471 57.5818 61.2347 57.0544L62.3284 50.4919C62.3301 50.4638 62.3301 50.4357 62.3284 50.4077C62.3351 50.3762 62.3403 50.3445 62.3438 50.3125V18.0469C62.3438 15.9327 60.6298 14.2188 58.5156 14.2188ZM59.2298 55.7812H57.8014L57.073 51.4062H59.9583L59.2298 55.7812ZM60.1562 49.2188H56.875V22.9688H60.1562V49.2188ZM60.1562 20.7812H56.875V18.0469C56.875 17.1408 57.6096 16.4062 58.5156 16.4062C59.4217 16.4062 60.1562 17.1408 60.1562 18.0469V20.7812Z" fill="#333333"/>
</symbol>

<symbol id="icon-mappoint" viewBox="0 0 12 18">
<title>mappoint</title>
<path d="M11.8337 6.49996C11.8337 5.73392 11.6828 4.97537 11.3896 4.26764C11.0965 3.55991 10.6668 2.91684 10.1251 2.37517C9.58344 1.83349 8.94038 1.40381 8.23265 1.11066C7.52491 0.81751 6.76637 0.666626 6.00033 0.666626C5.23428 0.666626 4.47574 0.81751 3.76801 1.11066C3.06027 1.40381 2.41721 1.83349 1.87554 2.37517C1.33386 2.91684 0.904181 3.55991 0.611028 4.26764C0.317876 4.97537 0.166992 5.73392 0.166992 6.49996C0.166992 7.65579 0.508659 8.73079 1.08783 9.63746H1.08116C3.04783 12.7166 6.00033 17.3333 6.00033 17.3333L10.9195 9.63746H10.9137C11.514 8.7011 11.8333 7.61224 11.8337 6.49996ZM6.00033 8.99996C5.33729 8.99996 4.7014 8.73657 4.23256 8.26773C3.76372 7.79889 3.50033 7.163 3.50033 6.49996C3.50033 5.83692 3.76372 5.20103 4.23256 4.73219C4.7014 4.26335 5.33729 3.99996 6.00033 3.99996C6.66337 3.99996 7.29925 4.26335 7.76809 4.73219C8.23693 5.20103 8.50033 5.83692 8.50033 6.49996C8.50033 7.163 8.23693 7.79889 7.76809 8.26773C7.29925 8.73657 6.66337 8.99996 6.00033 8.99996Z" fill="#333333"/>
</symbol>

<symbol id="icon-phone" viewBox="0 0 20 16">
<title>phone</title>
<path d="M17.256 10.253C17.16 9.586 16.645 9.066 15.982 8.911C13.405 8.307 12.759 6.823 12.65 5.177C12.193 5.092 11.38 5 10 5C8.62 5 7.807 5.092 7.35 5.177C7.241 6.823 6.595 8.307 4.018 8.911C3.355 9.067 2.84 9.586 2.744 10.253L2.247 13.695C2.072 14.907 2.962 16 4.2 16H15.8C17.037 16 17.928 14.907 17.753 13.695L17.256 10.253ZM10 13.492C8.605 13.492 7.474 12.372 7.474 10.992C7.474 9.612 8.605 8.492 10 8.492C11.395 8.492 12.526 9.612 12.526 10.992C12.526 12.372 11.394 13.492 10 13.492ZM19.95 4C19.926 2.5 16.108 0.001 10 0C3.891 0.001 0.0729981 2.5 0.0499981 4C0.0269981 5.5 0.0709982 7.452 2.585 7.127C5.526 6.746 5.345 5.719 5.345 4.251C5.345 3.227 7.737 2.98 10 2.98C12.263 2.98 14.654 3.227 14.655 4.251C14.655 5.719 14.474 6.746 17.415 7.127C19.928 7.452 19.973 5.5 19.95 4Z" fill="#333333"/>
</symbol>

<symbol id="icon-play" viewBox="0 0 70 70">
<title>play</title>
<path d="M35 0C15.6719 0 0 15.6719 0 35C0 54.3281 15.6719 70 35 70C54.3281 70 70 54.3281 70 35C70 15.6719 54.3281 0 35 0ZM46.2578 35.5391L29.1953 47.9531C29.1018 48.0203 28.9915 48.0605 28.8766 48.0691C28.7618 48.0777 28.6468 48.0545 28.5442 48.0021C28.4417 47.9496 28.3556 47.8699 28.2954 47.7716C28.2352 47.6734 28.2033 47.5605 28.2031 47.4453V22.6328C28.2027 22.5174 28.2343 22.4041 28.2944 22.3056C28.3544 22.207 28.4406 22.127 28.5434 22.0744C28.6461 22.0218 28.7614 21.9987 28.8765 22.0076C28.9916 22.0166 29.1019 22.0572 29.1953 22.125L46.2578 34.5312C46.3384 34.5883 46.4042 34.6638 46.4496 34.7515C46.4949 34.8391 46.5186 34.9364 46.5186 35.0352C46.5186 35.1339 46.4949 35.2312 46.4496 35.3189C46.4042 35.4065 46.3384 35.4821 46.2578 35.5391Z" fill="white"/>
</symbol>

<symbol id="icon-ribbon-design" viewBox="0 0 70 70">
<title>ribbon-design</title>
<path d="M45.7436 40.9404L35.8998 26.7217C35.7992 26.5762 35.6648 26.4572 35.5081 26.3751C35.3514 26.2929 35.1771 26.25 35.0002 26.25C34.8233 26.25 34.649 26.2929 34.4923 26.3751C34.3356 26.4572 34.2012 26.5762 34.1006 26.7217L24.2568 40.9404C24.1602 41.08 24.0974 41.2401 24.0734 41.4081C24.0495 41.5761 24.065 41.7474 24.1188 41.9084L26.9201 50.3125H26.2502C25.9601 50.3125 25.6819 50.4277 25.4768 50.6329C25.2717 50.838 25.1564 51.1162 25.1564 51.4063V54.6875C25.1564 54.9776 25.2717 55.2558 25.4768 55.4609C25.6819 55.666 25.9601 55.7813 26.2502 55.7813H27.3439V67.8125C27.3439 68.1026 27.4592 68.3808 27.6643 68.5859C27.8694 68.791 28.1476 68.9063 28.4377 68.9063H41.5627C41.8528 68.9063 42.131 68.791 42.3361 68.5859C42.5412 68.3808 42.6564 68.1026 42.6564 67.8125V55.7813H43.7502C44.0403 55.7813 44.3185 55.666 44.5236 55.4609C44.7287 55.2558 44.8439 54.9776 44.8439 54.6875V51.4063C44.8439 51.1162 44.7287 50.838 44.5236 50.6329C44.3185 50.4277 44.0403 50.3125 43.7502 50.3125H43.0803L45.8816 41.9084C45.9354 41.7474 45.9509 41.5761 45.9269 41.4081C45.903 41.2401 45.8402 41.08 45.7436 40.9404ZM35.0002 39.375C35.2165 39.375 35.428 39.4392 35.6078 39.5593C35.7877 39.6795 35.9279 39.8503 36.0107 40.0502C36.0935 40.2501 36.1151 40.47 36.0729 40.6821C36.0307 40.8943 35.9266 41.0892 35.7736 41.2422C35.6206 41.3951 35.4257 41.4993 35.2136 41.5415C35.0014 41.5837 34.7815 41.562 34.5816 41.4793C34.3818 41.3965 34.211 41.2563 34.0908 41.0764C33.9706 40.8966 33.9064 40.6851 33.9064 40.4688C33.9068 40.1788 34.0222 39.9008 34.2272 39.6958C34.4323 39.4908 34.7102 39.3754 35.0002 39.375ZM40.4689 66.7188H29.5314V55.7813H40.4689V66.7188ZM42.6564 53.5938H27.3439V52.5H42.6564V53.5938ZM40.7738 50.3125H29.2266L26.3664 41.7361L33.9064 30.8451V37.1875C33.907 37.2489 33.9125 37.3102 33.9229 37.3707C33.1903 37.6253 32.5717 38.1312 32.1766 38.7986C31.7815 39.4659 31.6356 40.2517 31.7647 41.0164C31.8939 41.7811 32.2897 42.4753 32.8819 42.976C33.4742 43.4766 34.2247 43.7513 35.0002 43.7513C35.7757 43.7513 36.5262 43.4766 37.1185 42.976C37.7107 42.4753 38.1065 41.7811 38.2357 41.0164C38.3648 40.2517 38.2189 39.4659 37.8238 38.7986C37.4287 38.1312 36.8101 37.6253 36.0775 37.3707C36.0879 37.3102 36.0934 37.2489 36.0939 37.1875V30.8451L43.634 41.7361L40.7738 50.3125Z" fill="#333333"/>
<path d="M67.8125 13.125H63.4375C63.1474 13.125 62.8692 13.2402 62.6641 13.4454C62.459 13.6505 62.3438 13.9287 62.3438 14.2188V15.3221C62.2984 15.3161 62.2528 15.3129 62.207 15.3125H38.2812V14.2188C38.2812 13.9287 38.166 13.6505 37.9609 13.4454C37.7558 13.2402 37.4776 13.125 37.1875 13.125H36.0938V7.65625H37.1875C37.4776 7.65625 37.7558 7.54102 37.9609 7.3359C38.166 7.13078 38.2812 6.85258 38.2812 6.5625V2.1875C38.2812 1.89742 38.166 1.61922 37.9609 1.4141C37.7558 1.20898 37.4776 1.09375 37.1875 1.09375H32.8125C32.5224 1.09375 32.2442 1.20898 32.0391 1.4141C31.834 1.61922 31.7188 1.89742 31.7188 2.1875V6.5625C31.7188 6.85258 31.834 7.13078 32.0391 7.3359C32.2442 7.54102 32.5224 7.65625 32.8125 7.65625H33.9062V13.125H32.8125C32.5224 13.125 32.2442 13.2402 32.0391 13.4454C31.834 13.6505 31.7188 13.9287 31.7188 14.2188V15.3125H7.65625V14.2188C7.65625 13.9287 7.54102 13.6505 7.3359 13.4454C7.13078 13.2402 6.85258 13.125 6.5625 13.125H2.1875C1.89742 13.125 1.61922 13.2402 1.4141 13.4454C1.20898 13.6505 1.09375 13.9287 1.09375 14.2188V18.5938C1.09375 18.8838 1.20898 19.162 1.4141 19.3671C1.61922 19.5723 1.89742 19.6875 2.1875 19.6875H6.5625C6.85258 19.6875 7.13078 19.5723 7.3359 19.3671C7.54102 19.162 7.65625 18.8838 7.65625 18.5938V17.5H25.7387C24.2951 18.455 23.0048 19.6236 21.9119 20.9658C19.1078 24.366 17.5 28.6836 17.5 32.8125H16.4062C16.1162 32.8125 15.838 32.9277 15.6329 33.1329C15.4277 33.338 15.3125 33.6162 15.3125 33.9062V38.2812C15.3125 38.5713 15.4277 38.8495 15.6329 39.0546C15.838 39.2598 16.1162 39.375 16.4062 39.375H20.7812C21.0713 39.375 21.3495 39.2598 21.5546 39.0546C21.7598 38.8495 21.875 38.5713 21.875 38.2812V33.9062C21.875 33.6162 21.7598 33.338 21.5546 33.1329C21.3495 32.9277 21.0713 32.8125 20.7812 32.8125H19.6875C19.6875 24.7023 25.9273 18.3053 31.7188 17.5711V18.5938C31.7188 18.8838 31.834 19.162 32.0391 19.3671C32.2442 19.5723 32.5224 19.6875 32.8125 19.6875H37.1875C37.4776 19.6875 37.7558 19.5723 37.9609 19.3671C38.166 19.162 38.2812 18.8838 38.2812 18.5938V17.567C41.2426 17.9184 44.085 19.693 46.3791 22.6529C48.6117 25.5309 50.0295 29.2578 50.2742 32.8125H49.2188C48.9287 32.8125 48.6505 32.9277 48.4454 33.1329C48.2402 33.338 48.125 33.6162 48.125 33.9062V38.2812C48.125 38.5713 48.2402 38.8495 48.4454 39.0546C48.6505 39.2598 48.9287 39.375 49.2188 39.375H53.5938C53.8838 39.375 54.162 39.2598 54.3671 39.0546C54.5723 38.8495 54.6875 38.5713 54.6875 38.2812V33.9062C54.6875 33.6162 54.5723 33.338 54.3671 33.1329C54.162 32.9277 53.8838 32.8125 53.5938 32.8125H52.4658C52.2266 28.7506 50.6693 24.6135 48.1086 21.3117C46.9824 19.8333 45.6252 18.5462 44.0891 17.5H62.207C62.2528 17.4996 62.2984 17.4964 62.3438 17.4904V18.5938C62.3438 18.8838 62.459 19.162 62.6641 19.3671C62.8692 19.5723 63.1474 19.6875 63.4375 19.6875H67.8125C68.1026 19.6875 68.3808 19.5723 68.5859 19.3671C68.791 19.162 68.9062 18.8838 68.9062 18.5938V14.2188C68.9062 13.9287 68.791 13.6505 68.5859 13.4454C68.3808 13.2402 68.1026 13.125 67.8125 13.125ZM5.46875 17.5H3.28125V15.3125H5.46875V17.5ZM19.6875 37.1875H17.5V35H19.6875V37.1875ZM33.9062 3.28125H36.0938V5.46875H33.9062V3.28125ZM36.0938 17.5H33.9062V15.3125H36.0938V17.5ZM50.3125 35H52.5V37.1875H50.3125V35ZM66.7188 17.5H64.5312V15.3125H66.7188V17.5Z" fill="#333333"/>
</symbol>

<symbol id="icon-search" viewBox="0 0 18 18">
<title>search</title>
<path d="M18 16L12.846 10.846C13.7988 9.39788 14.1805 7.64774 13.917 5.93442C13.6536 4.22111 12.7638 2.66648 11.4199 1.57154C10.076 0.476593 8.37369 -0.0807732 6.64247 0.00734836C4.91125 0.09547 3.27431 0.822811 2.04857 2.04855C0.822834 3.27429 0.0954928 4.91123 0.00737125 6.64245C-0.0807504 8.37366 0.476616 10.076 1.57156 11.4199C2.6665 12.7637 4.22113 13.6535 5.93445 13.917C7.64777 14.1804 9.3979 13.7988 10.846 12.846L16 18L18 16ZM2 6.99998C2 4.24298 4.243 1.99998 7 1.99998C9.757 1.99998 12 4.24298 12 6.99998C12 9.75698 9.757 12 7 12C4.243 12 2 9.75698 2 6.99998Z" fill="white"/>
</symbol>

<symbol id="icon-subscribe" viewBox="0 0 17 17">
<title>subscribe</title>
<path d="M11 8.5L7.25 10.6651L7.25 6.33494L11 8.5Z" fill="black"/>
<path d="M4.75 2.00481L16 8.5L4.75 14.9952L4.75 2.00481Z" stroke="black"/>
</symbol>

<symbol id="icon-telegram" viewBox="0 0 21 18">
<title>telegram</title>
<path d="M18.665 0.717064L0.935003 7.55406C-0.274997 8.04006 -0.267997 8.71506 0.713003 9.01606L5.265 10.4361L15.797 3.79106C16.295 3.48806 16.75 3.65106 16.376 3.98306L7.843 11.6841H7.841L7.843 11.6851L7.529 16.3771C7.989 16.3771 8.192 16.1661 8.45 15.9171L10.661 13.7671L15.26 17.1641C16.108 17.6311 16.717 17.3911 16.928 16.3791L19.947 2.15106C20.256 0.912064 19.474 0.351064 18.665 0.717064Z" fill="#333333"/>
</symbol>

<symbol id="icon-user" viewBox="0 0 16 16">
<title>user</title>
<path d="M8 0C9.06087 0 10.0783 0.421427 10.8284 1.17157C11.5786 1.92172 12 2.93913 12 4C12 5.06087 11.5786 6.07828 10.8284 6.82843C10.0783 7.57857 9.06087 8 8 8C6.93913 8 5.92172 7.57857 5.17157 6.82843C4.42143 6.07828 4 5.06087 4 4C4 2.93913 4.42143 1.92172 5.17157 1.17157C5.92172 0.421427 6.93913 0 8 0ZM8 10C12.42 10 16 11.79 16 14V16H0V14C0 11.79 3.58 10 8 10Z" fill="white"/>
</symbol>

<symbol id="icon-vkontakte" viewBox="0 0 24 14">
<title>vkontakte</title>
<path fill-rule="evenodd" clip-rule="evenodd" d="M21.3624 9.75765C21.3624 9.75765 23.3028 11.6741 23.7828 12.5609C23.7922 12.5736 23.7994 12.5878 23.8044 12.6029C24 12.9305 24.048 13.1873 23.952 13.3769C23.79 13.6901 23.2416 13.8473 23.0556 13.8605H19.626C19.3872 13.8605 18.8904 13.7981 18.2856 13.3805C17.8236 13.0577 17.364 12.5261 16.9188 12.0065C16.254 11.2349 15.6792 10.5653 15.0972 10.5653C15.0237 10.5651 14.9507 10.5773 14.8812 10.6013C14.4408 10.7405 13.8816 11.3681 13.8816 13.0397C13.8816 13.5629 13.4688 13.8605 13.1796 13.8605H11.6088C11.0736 13.8605 8.28722 13.6733 5.81642 11.0681C2.78882 7.87845 0.0696241 1.48005 0.0432241 1.42365C-0.125976 1.00965 0.229224 0.784049 0.613224 0.784049H4.07642C4.54082 0.784049 4.69202 1.06485 4.79762 1.31685C4.92002 1.60605 5.37362 2.76285 6.11762 4.06245C7.32242 6.17685 8.06282 7.03725 8.65442 7.03725C8.76557 7.03758 8.87484 7.0086 8.97122 6.95325C9.74402 6.52845 9.60002 3.76845 9.56402 3.19965C9.56402 3.08925 9.56282 1.96725 9.16682 1.42485C8.88362 1.03605 8.40122 0.884848 8.10962 0.829648C8.18762 0.716848 8.35322 0.544048 8.56562 0.442048C9.09482 0.178048 10.0512 0.139648 11.0004 0.139648H11.5272C12.5568 0.154048 12.8232 0.220048 13.1976 0.314848C13.9512 0.494848 13.9656 0.983249 13.8996 2.64645C13.8804 3.12165 13.86 3.65685 13.86 4.28685C13.86 4.42125 13.854 4.57125 13.854 4.72365C13.8312 5.57685 13.8012 6.53805 14.4036 6.93285C14.4818 6.98152 14.572 7.0073 14.664 7.00725C14.8728 7.00725 15.498 7.00725 17.1936 4.09725C17.9376 2.81205 18.5136 1.29645 18.5532 1.18245C18.5868 1.11885 18.6876 0.940048 18.81 0.868048C18.8971 0.821723 18.9946 0.798581 19.0932 0.800849H23.1672C23.6112 0.800849 23.9124 0.868049 23.9712 1.03605C24.0696 1.30845 23.952 2.14005 22.092 4.65525C21.7788 5.07405 21.504 5.43645 21.2628 5.75325C19.5768 7.96605 19.5768 8.07765 21.3624 9.75765Z" fill="#333333"/>
</svg>
</symbol>

<symbol id="icon-youtube" viewBox="0 0 24 16">
<title>youtube</title>
<path d="M22.8956 2.52385C22.7662 2.04288 22.5127 1.60435 22.1605 1.25215C21.8083 0.899951 21.3697 0.646434 20.8888 0.516973C19.1175 0.0375978 12 0.0375977 12 0.0375977C12 0.0375977 4.8825 0.0375978 3.11125 0.516973C2.63029 0.646434 2.19176 0.899951 1.83956 1.25215C1.48736 1.60435 1.23384 2.04288 1.10438 2.52385C0.773648 4.33025 0.613153 6.1637 0.625005 8.0001C0.613153 9.83649 0.773648 11.6699 1.10438 13.4763C1.23384 13.9573 1.48736 14.3958 1.83956 14.748C2.19176 15.1002 2.63029 15.3538 3.11125 15.4832C4.8825 15.9626 12 15.9626 12 15.9626C12 15.9626 19.1175 15.9626 20.8888 15.4832C21.3697 15.3538 21.8083 15.1002 22.1605 14.748C22.5127 14.3958 22.7662 13.9573 22.8956 13.4763C23.2264 11.6699 23.3869 9.83649 23.375 8.0001C23.3869 6.1637 23.2264 4.33025 22.8956 2.52385ZM9.72501 11.4126V4.5876L15.6319 8.0001L9.72501 11.4126Z" fill="#333333"/>
</svg>
</symbol>
</defs>
</svg>