<svg aria-hidden="true" style="position: absolute; width: 0; height: 0; overflow: hidden;" version="1.1" xmlns="http://www.w3.org/2000/svg" xmlns:xlink="http://www.w3.org/1999/xlink">
<defs>
<symbol id="icon-delivery" viewBox="0 0 32 32">
<path d="M28 17.987c-0.276 0-0.5 0.224-0.5 0.5v3.503h-0.795c-0.196-1.734-1.761-2.981-3.495-2.785-1.464 0.166-2.619 1.321-2.785 2.785h-10.425v-14.5h17.5v1.572c0 0.276 0.224 0.5 0.5 0.5s0.5-0.224 0.5-0.5v-2.072c0-0.276-0.224-0.5-0.5-0.5h-18.5c-0.276 0-0.5 0.224-0.5 0.5v0.5h-5.726c-1.255 0.002-2.272 1.019-2.274 2.274v0.726c0 0.276 0.224 0.5 0.5 0.5h0.582l-0.381 4.582c-0.998 0.26-1.696 1.16-1.7 2.192v4.226c0 0.276 0.224 0.5 0.5 0.5h1.012c0.137 1.788 1.698 3.126 3.486 2.989 1.598-0.122 2.867-1.392 2.989-2.989 0.004 0 0.008 0.003 0.012 0.003h1c0 0.276 0.224 0.5 0.5 0.5h10.97c0.356 1.709 2.030 2.806 3.74 2.45 1.231-0.257 2.193-1.218 2.45-2.45h1.341c0.276 0 0.5-0.224 0.5-0.5v-4.006c0-0.276-0.224-0.5-0.5-0.5zM4.75 24.49c-1.243 0-2.25-1.007-2.25-2.25s1.007-2.25 2.25-2.25c1.243 0 2.25 1.007 2.25 2.25-0.001 1.242-1.008 2.249-2.25 2.25zM9 21.49h-1c-0.029 0.003-0.058 0.009-0.087 0.017-0.402-1.747-2.144-2.837-3.891-2.435-1.205 0.277-2.147 1.215-2.431 2.418h-0.591v-3.726c0.001-0.703 0.571-1.273 1.274-1.274h6.726v5zM9 15.49h-6.29l0.375-4.5h5.915v4.5zM9 9.99h-7v-0.226c0.001-0.703 0.571-1.273 1.274-1.274h5.726v1.5zM25.722 22.47c-0.064 1.144-1.012 2.038-2.157 2.036h-0c-1.049-0.002-1.945-0.758-2.124-1.791 0.088-0.153 0.078-0.343-0.026-0.486 0.067-1.189 1.085-2.099 2.275-2.033s2.099 1.085 2.033 2.275z"></path>
<path d="M27.5 10.49h-7c-0.276 0-0.5 0.224-0.5 0.5s0.224 0.5 0.5 0.5h7c0.276 0 0.5-0.224 0.5-0.5s-0.224-0.5-0.5-0.5z"></path>
<path d="M28.5 15.99h-11c-0.276 0-0.5 0.224-0.5 0.5s0.224 0.5 0.5 0.5h11c0.276 0 0.5-0.224 0.5-0.5s-0.224-0.5-0.5-0.5z"></path>
<path d="M27.5 12.99h-5.5c-0.276 0-0.5 0.224-0.5 0.5s0.224 0.5 0.5 0.5h5.5c0.276 0 0.5-0.224 0.5-0.5s-0.224-0.5-0.5-0.5z"></path>
<path d="M29.5 11.49h1c0.276 0 0.5-0.224 0.5-0.5s-0.224-0.5-0.5-0.5h-1c-0.276 0-0.5 0.224-0.5 0.5s0.224 0.5 0.5 0.5z"></path>
<path d="M31 15.99h-1c-0.276 0-0.5 0.224-0.5 0.5s0.224 0.5 0.5 0.5h1c0.276 0 0.5-0.224 0.5-0.5s-0.224-0.5-0.5-0.5z"></path>
<path d="M31.5 12.99h-2c-0.276 0-0.5 0.224-0.5 0.5s0.224 0.5 0.5 0.5h2c0.276 0 0.5-0.224 0.5-0.5s-0.224-0.5-0.5-0.5z"></path>
</symbol>
<symbol id="icon-diamond" viewBox="0 0 32 32">
<path fill="#fff" style="fill: var(--color1, #fff)" d="M30.675 10.565l-0.009-0.080c-0.017-0.1-0.047-0.196-0.090-0.285l-4.482-8.031c0 0-0.572-0.787-0.707-0.787h-19.099l-5.744 8.546-0.068 0.079-0.009 0.037c-0.049 0.087-0.088 0.179-0.119 0.276l-0.023 0.076c-0.066 0.244-0.063 0.506 0.009 0.748l0.027 0.086c0.036 0.102 0.081 0.194 0.133 0.277l13.915 19.627c0.071 0.102 0.158 0.193 0.265 0.276l0.081 0.056c0.079 0.055 0.162 0.099 0.282 0.148l0.079 0.029c0.136 0.039 0.254 0.057 0.369 0.057 0.117 0 0.231-0.017 0.384-0.061l0.094-0.037c0.092-0.036 0.175-0.081 0.274-0.15l0.062-0.043c0.107-0.084 0.192-0.176 0.24-0.247l13.904-19.602c0.123-0.183 0.203-0.396 0.233-0.622l0.011-0.102 0.006-0.080-0.017-0.189zM23.22 10.043l1.979-3.987 1.978 3.987h-3.957zM22.033 12.406h4.695l-7.826 11.036 3.131-11.036zM20.871 8.848l-2.858-4.317h5.001l-2.143 4.317zM11.715 12.406h7.54l-3.771 13.29-3.769-13.29zM12.463 10.043l3.021-4.564 3.021 4.564h-6.042zM10.335 8.49l-1.31-3.959h3.931l-2.621 3.959zM12.068 23.443l-7.827-11.037h4.696l3.131 11.037zM6.759 6.084l1.311 3.959h-3.932l2.621-3.959z"></path>
</symbol>
<symbol id="icon-dropdown" viewBox="0 0 32 32">
<path d="M16 26.667l-13.856-20h27.713l-13.857 20z"></path>
</symbol>
<symbol id="icon-eco" viewBox="0 0 32 32">
<path d="M11.419 3.26c0-0.433 0.044-0.693 0.787-0.693h9.953c1.733 0 2.693 1.48 3.387 4.257l0.56 2.221h1.693c0.307-6.304 0.573-9.045 0.573-9.045s-4.261 0.48-6.787 0.48h-12.732l-6.819-0.219v1.827l2.3 0.435c1.613 0.32 2 0.661 2.133 2.141 0 0 0.147 4.36 0.147 11.52 0 7.18-0.12 11.48-0.12 11.48 0 1.297-0.52 1.777-2.12 2.097l-2.296 0.44v1.799l6.84-0.22h11.4c2.58 0 8.52 0.22 8.52 0.22 0.14-1.56 1-8.64 1.14-9.419h-1.6l-1.712 3.88c-1.34 3.040-3.301 3.26-5.48 3.26h-6.541c-2.173 0-3.22-0.853-3.22-2.733v-9.921c0 0 4.827 0 6.387 0.128 1.216 0.085 1.951 0.433 2.347 2.131l0.52 2.26h1.88l-0.12-5.704 0.256-5.74h-1.855l-0.6 2.52c-0.377 1.659-0.64 1.96-2.339 2.133-2.221 0.227-6.42 0.187-6.42 0.187v-11.715h-0.067l0.004-0.007z"></path>
</symbol>
<symbol id="icon-envelope-1" viewBox="0 0 32 32">
<path d="M1.020 7.62l13.333 7.163c0.448 0.24 1.028 0.354 1.611 0.354s1.163-0.114 1.611-0.354l13.333-7.163c0.869-0.468 1.691-2.286 0.096-2.286h-30.078c-1.595 0-0.773 1.819 0.094 2.286zM31.312 11.536l-13.737 7.159c-0.604 0.316-1.028 0.354-1.611 0.354s-1.006-0.037-1.611-0.354c-0.604-0.316-12.681-6.647-13.668-7.161-0.693-0.363-0.686 0.062-0.686 0.389v12.965c0 0.747 1.006 1.778 1.778 1.778h28.444c0.772 0 1.778-1.031 1.778-1.778v-12.964c0-0.327 0.007-0.752-0.688-0.389z"></path>
</symbol>
<symbol id="icon-envelope-2" viewBox="0 0 32 32">
<path d="M30.377 4.076h-28.755c-0.271 0-0.531 0.108-0.723 0.3s-0.299 0.452-0.3 0.723v2.058c0 0.095 0.103 0.204 0.187 0.248l15.114 8.633c0.039 0.022 0.083 0.034 0.127 0.033 0.046 0 0.090-0.012 0.13-0.035l14.658-8.623c0.082-0.046 0.301-0.168 0.383-0.224 0.099-0.068 0.202-0.129 0.202-0.25v-1.84c-0-0.271-0.108-0.531-0.3-0.723s-0.452-0.3-0.723-0.3z"></path>
<path d="M31.273 10.258c-0.039-0.022-0.084-0.034-0.129-0.034s-0.090 0.012-0.129 0.035l-8.295 4.88c-0.033 0.019-0.061 0.046-0.083 0.077s-0.035 0.068-0.041 0.106-0.002 0.076 0.009 0.113c0.011 0.037 0.031 0.070 0.057 0.098l8.296 8.943c0.024 0.026 0.053 0.046 0.085 0.060s0.067 0.021 0.102 0.021c0.068 0 0.133-0.027 0.181-0.075s0.075-0.113 0.075-0.181v-13.823c0-0.045-0.011-0.089-0.034-0.128s-0.055-0.071-0.094-0.094z"></path>
<path d="M20.33 16.779c-0.039-0.043-0.092-0.071-0.15-0.080s-0.116 0.003-0.166 0.032l-3.325 1.956c-0.195 0.113-0.416 0.173-0.64 0.174s-0.446-0.056-0.643-0.166l-2.926-1.672c-0.047-0.027-0.102-0.038-0.156-0.032s-0.105 0.029-0.145 0.066l-11.111 10.306c-0.029 0.027-0.052 0.061-0.065 0.098s-0.019 0.078-0.014 0.117c0.004 0.040 0.018 0.078 0.040 0.111s0.051 0.061 0.085 0.081c0.173 0.102 0.34 0.15 0.509 0.15h28.461c0.050 0 0.098-0.014 0.14-0.042s0.074-0.066 0.094-0.112c0.020-0.046 0.026-0.096 0.018-0.145s-0.031-0.094-0.065-0.131l-9.941-10.715z"></path>
<path d="M9.733 15.841c0.029-0.027 0.052-0.061 0.066-0.099s0.019-0.078 0.014-0.118c-0.004-0.040-0.018-0.078-0.040-0.112s-0.052-0.061-0.086-0.081l-8.706-4.973c-0.039-0.022-0.083-0.034-0.127-0.033s-0.089 0.012-0.127 0.035c-0.039 0.023-0.071 0.055-0.093 0.094s-0.034 0.083-0.034 0.127v13.048c-0 0.050 0.014 0.099 0.041 0.14s0.066 0.075 0.112 0.095c0.046 0.020 0.096 0.026 0.145 0.018s0.095-0.031 0.131-0.065l8.704-8.076z"></path>
</symbol>
<symbol id="icon-facebook" viewBox="0 0 32 32">
<path d="M18.421 31.595v-14.206h4.793l0.712-5.562h-5.505v-3.543c0-1.605 0.447-2.704 2.751-2.704h2.919v-4.959c-1.42-0.152-2.848-0.226-4.276-0.22-4.236 0-7.145 2.586-7.145 7.334v4.082h-4.761v5.562h4.772v14.217h5.741z"></path>
</symbol>
<symbol id="icon-handset" viewBox="0 0 32 32">
<path d="M20.812 22.089l2.489-2.489c0.335-0.331 0.759-0.558 1.221-0.652s0.941-0.053 1.379 0.119l3.033 1.211c0.443 0.18 0.823 0.487 1.092 0.882s0.415 0.862 0.419 1.34v5.556c-0.003 0.325-0.071 0.647-0.201 0.945s-0.319 0.567-0.556 0.79c-0.237 0.223-0.516 0.396-0.822 0.508s-0.63 0.162-0.955 0.145c-21.256-1.322-25.544-19.322-26.356-26.211-0.038-0.338-0.003-0.681 0.101-1.005s0.276-0.622 0.504-0.875c0.228-0.253 0.506-0.455 0.818-0.592s0.648-0.208 0.989-0.205h5.367c0.479 0.001 0.946 0.146 1.342 0.415s0.702 0.651 0.88 1.096l1.211 3.033c0.178 0.437 0.223 0.916 0.131 1.379s-0.32 0.887-0.653 1.221l-2.489 2.489c0 0 1.433 9.7 11.056 10.9z"></path>
</symbol>
<symbol id="icon-jewelry" viewBox="0 0 32 32">
<path d="M11.595 19.983c-0.306-0.529-0.876-0.858-1.488-0.858h-2.263v-1.358c1.067-0.209 1.906-1.114 1.993-2.231 0.020-0.258-0.173-0.484-0.431-0.504-0.26-0.021-0.484 0.173-0.504 0.431-0.061 0.791-0.732 1.411-1.527 1.411-0.844 0-1.531-0.687-1.531-1.531s0.687-1.531 1.531-1.531c0.269 0 0.534 0.071 0.765 0.205 0.224 0.13 0.511 0.053 0.64-0.171s0.053-0.511-0.171-0.64c-0.238-0.137-0.497-0.233-0.766-0.285v-1.367c0.633-0.2 1.094-0.792 1.094-1.491 0-0.699-0.462-1.293-1.097-1.492l0.009-0.974c0.002-0.156 0.112-0.288 0.269-0.321 1.687-0.352 2.912-1.866 2.912-3.6 0-1.991-1.668-3.674-3.642-3.676-0.001 0-0.001 0-0.002 0-1.423 0-2.749 0.903-3.377 2.3-0.106 0.236-0.001 0.514 0.235 0.62s0.514 0.001 0.62-0.235c0.477-1.062 1.467-1.747 2.522-1.747h0.002c1.307 0.001 2.706 1.101 2.706 2.738 0 1.293-0.911 2.421-2.166 2.683-0.592 0.123-1.009 0.629-1.015 1.229l-0.010 0.985c-0.632 0.2-1.091 0.792-1.091 1.489 0 0.698 0.46 1.291 1.094 1.491v1.367c-1.138 0.22-2 1.223-2 2.424s0.862 2.204 2 2.424v1.358h-2.263c-0.611 0-1.181 0.329-1.488 0.858l-2.73 4.719c-0.307 0.531-0.307 1.19 0 1.721l2.73 4.719c0.306 0.529 0.876 0.858 1.488 0.858h5.464c0.611 0 1.181-0.329 1.488-0.858l2.73-4.719c0.307-0.531 0.307-1.19 0-1.721l-2.73-4.719zM7.375 9.438c0.345 0 0.625 0.28 0.625 0.625s-0.28 0.625-0.625 0.625c-0.345 0-0.625-0.28-0.625-0.625s0.28-0.625 0.625-0.625zM13.513 25.954l-2.73 4.719c-0.139 0.241-0.398 0.39-0.676 0.39h-5.464c-0.278 0-0.537-0.149-0.676-0.39l-2.73-4.719c-0.14-0.241-0.14-0.541 0-0.783l2.73-4.719c0.139-0.241 0.398-0.39 0.676-0.39h5.464c0.278 0 0.537 0.15 0.676 0.39l2.73 4.719c0.14 0.241 0.14 0.541 0 0.783z"></path>
<path d="M9.711 22.604c-0.195-0.337-0.558-0.547-0.947-0.547h-2.778c-0.389 0-0.752 0.21-0.947 0.547l-1.389 2.406c-0.195 0.337-0.195 0.756 0 1.094l0.22 0.38c0.13 0.224 0.416 0.301 0.64 0.172s0.301-0.416 0.172-0.64l-0.22-0.38c-0.028-0.048-0.028-0.108 0-0.156l1.389-2.406c0.028-0.048 0.080-0.078 0.135-0.078h2.778c0.056 0 0.107 0.030 0.135 0.078l1.389 2.406c0.028 0.048 0.028 0.108 0 0.156l-1.389 2.406c-0.028 0.048-0.080 0.078-0.135 0.078h-2.778c-0.118 0.010-0.172-0.151-0.222-0.229-0.13-0.224-0.416-0.301-0.64-0.172s-0.301 0.416-0.172 0.64l0.087 0.151c0.195 0.337 0.558 0.547 0.947 0.547h2.778c0.389 0 0.752-0.21 0.947-0.547l1.389-2.406c0.195-0.337 0.195-0.756 0-1.094l-1.389-2.406z"></path>
<path d="M31.575 24.702l-0.795-1.374c-0.13-0.224-0.416-0.301-0.64-0.171s-0.301 0.416-0.171 0.64l0.795 1.374c0.14 0.241 0.14 0.541 0 0.783l-2.73 4.719c-0.139 0.241-0.398 0.39-0.676 0.39h-5.464c-0.278 0-0.537-0.149-0.676-0.39l-2.73-4.719c-0.14-0.241-0.14-0.541 0-0.783l2.73-4.719c0.139-0.241 0.398-0.39 0.676-0.39h5.464c0.278 0 0.537 0.149 0.676 0.39l0.85 1.47c0.13 0.224 0.416 0.301 0.64 0.171s0.301-0.416 0.171-0.64l-0.85-1.47c-0.306-0.529-0.876-0.858-1.488-0.858h-2.263v-1.358c1.138-0.22 2-1.223 2-2.424s-0.862-2.204-2-2.424v-1.367c0.633-0.2 1.094-0.792 1.094-1.491 0-0.699-0.462-1.293-1.097-1.492l0.009-0.974c0.001-0.156 0.112-0.288 0.269-0.321 1.687-0.352 2.912-1.866 2.912-3.6 0-0.139-0.008-0.279-0.024-0.416-0.029-0.257-0.262-0.442-0.519-0.412s-0.442 0.262-0.412 0.519c0.012 0.102 0.018 0.206 0.018 0.31 0 1.293-0.911 2.421-2.166 2.683-0.592 0.123-1.009 0.629-1.015 1.229l-0.010 0.985c-0.632 0.2-1.091 0.792-1.091 1.49 0 0.698 0.461 1.291 1.094 1.491v1.367c-1.138 0.22-2 1.223-2 2.424s0.862 2.204 2 2.424v1.358h-2.263c-0.611 0-1.181 0.329-1.488 0.858l-2.73 4.719c-0.307 0.531-0.307 1.19 0 1.721l2.73 4.719c0.306 0.529 0.876 0.858 1.488 0.858h5.464c0.611 0 1.181-0.329 1.488-0.858l2.73-4.719c0.307-0.531 0.307-1.19-0-1.721zM24.625 9.438c0.345 0 0.625 0.28 0.625 0.625s-0.28 0.625-0.625 0.625-0.625-0.28-0.625-0.625c0-0.345 0.28-0.625 0.625-0.625zM23.094 15.344c0-0.844 0.687-1.531 1.531-1.531s1.531 0.687 1.531 1.531c0 0.844-0.687 1.531-1.531 1.531s-1.531-0.687-1.531-1.531z"></path>
<path d="M21.495 2.92c0.231 0.105 0.513 0.003 0.62-0.235 0.477-1.062 1.467-1.747 2.522-1.747h0.002c0.67 0 1.348 0.283 1.86 0.775 0.187 0.179 0.484 0.173 0.663-0.013s0.174-0.483-0.013-0.663c-0.685-0.658-1.6-1.036-2.509-1.037-0.001 0-0.001 0-0.002 0-1.423 0-2.749 0.903-3.377 2.3-0.106 0.236-0.001 0.514 0.235 0.62z"></path>
<path d="M26.014 22.057h-2.778c-0.39 0-0.752 0.21-0.947 0.547l-1.389 2.406c-0.195 0.337-0.195 0.756 0 1.094l1.389 2.406c0.195 0.337 0.558 0.547 0.947 0.547h2.778c0.39 0 0.752-0.21 0.947-0.547l1.389-2.406c0.195-0.337 0.195-0.756 0-1.094l-1.389-2.406c-0.195-0.337-0.558-0.547-0.947-0.547zM27.538 25.635l-1.389 2.406c-0.028 0.048-0.080 0.078-0.135 0.078h-2.778c-0.056 0-0.107-0.030-0.135-0.078l-1.389-2.406c-0.028-0.048-0.028-0.108 0-0.156l1.389-2.406c0.028-0.048 0.080-0.078 0.135-0.078h2.778c0.056 0 0.108 0.030 0.135 0.078l1.389 2.406c0.028 0.048 0.028 0.108 0 0.156z"></path>
</symbol>
<symbol id="icon-like" viewBox="0 0 32 32">
<path fill="#fff" style="fill: var(--color1, #fff)" d="M16.891 6.77c-5.186-8.010-15.681-3.646-15.681 5.079 0 6.552 14.389 16.802 15.681 18.134 1.301-1.333 14.974-11.582 14.974-18.134 0-8.659-9.779-13.089-14.974-5.079z"></path>
</symbol>
<symbol id="icon-list" viewBox="0 0 32 32">
<path d="M23 1h-4v-0.5c0-0.276-0.224-0.5-0.5-0.5s-0.5 0.224-0.5 0.5v0.5h-4v-0.5c0-0.276-0.224-0.5-0.5-0.5s-0.5 0.224-0.5 0.5v0.5h-4v-0.5c0-0.276-0.224-0.5-0.5-0.5s-0.5 0.224-0.5 0.5v0.5h-4c-0.276 0-0.5 0.224-0.5 0.5v30c0 0.276 0.224 0.5 0.5 0.5h19c0.276 0 0.5-0.224 0.5-0.5v-30c0-0.276-0.224-0.5-0.5-0.5zM22.5 31h-18v-29h3.5v1.5c0 0.276 0.224 0.5 0.5 0.5s0.5-0.224 0.5-0.5v-1.5h4v1.5c0 0.276 0.224 0.5 0.5 0.5s0.5-0.224 0.5-0.5v-1.5h4v1.5c0 0.276 0.224 0.5 0.5 0.5s0.5-0.224 0.5-0.5v-1.5h3.5v29z"></path>
<path d="M11.5 5.5h-5c-0.276 0-0.5 0.224-0.5 0.5v5c0 0.276 0.224 0.5 0.5 0.5h5c0.276 0 0.5-0.224 0.5-0.5v-5c0-0.276-0.224-0.5-0.5-0.5zM11 10.5h-4v-4h4v4z"></path>
<path d="M11.5 12.5h-5c-0.276 0-0.5 0.224-0.5 0.5v5c0 0.276 0.224 0.5 0.5 0.5h5c0.276 0 0.5-0.224 0.5-0.5v-5c0-0.276-0.224-0.5-0.5-0.5zM11 17.5h-4v-4h4v4z"></path>
<path d="M11.5 19.5h-5c-0.276 0-0.5 0.224-0.5 0.5v5c0 0.276 0.224 0.5 0.5 0.5h5c0.276 0 0.5-0.224 0.5-0.5v-5c0-0.276-0.224-0.5-0.5-0.5zM11 24.5h-4v-4h4v4z"></path>
<path d="M13.5 6.5c0 0.276 0.224 0.5 0.5 0.5h6c0.276 0 0.5-0.224 0.5-0.5s-0.224-0.5-0.5-0.5h-6c-0.276 0-0.5 0.224-0.5 0.5z"></path>
<path d="M20 10h-6c-0.276 0-0.5 0.224-0.5 0.5s0.224 0.5 0.5 0.5h6c0.276 0 0.5-0.224 0.5-0.5s-0.224-0.5-0.5-0.5z"></path>
<path d="M14 9h2.5c0.276 0 0.5-0.224 0.5-0.5s-0.224-0.5-0.5-0.5h-2.5c-0.276 0-0.5 0.224-0.5 0.5s0.224 0.5 0.5 0.5z"></path>
<path d="M19 9c0.276 0 0.5-0.224 0.5-0.5s-0.224-0.5-0.5-0.5h-1c-0.276 0-0.5 0.224-0.5 0.5s0.224 0.5 0.5 0.5h1z"></path>
<path d="M20 13h-6c-0.276 0-0.5 0.224-0.5 0.5s0.224 0.5 0.5 0.5h6c0.276 0 0.5-0.224 0.5-0.5s-0.224-0.5-0.5-0.5z"></path>
<path d="M20 17h-6c-0.276 0-0.5 0.224-0.5 0.5s0.224 0.5 0.5 0.5h6c0.276 0 0.5-0.224 0.5-0.5s-0.224-0.5-0.5-0.5z"></path>
<path d="M14 16h2.5c0.276 0 0.5-0.224 0.5-0.5s-0.224-0.5-0.5-0.5h-2.5c-0.276 0-0.5 0.224-0.5 0.5s0.224 0.5 0.5 0.5z"></path>
<path d="M19 16c0.276 0 0.5-0.224 0.5-0.5s-0.224-0.5-0.5-0.5h-1c-0.276 0-0.5 0.224-0.5 0.5s0.224 0.5 0.5 0.5h1z"></path>
<path d="M20 20h-6c-0.276 0-0.5 0.224-0.5 0.5s0.224 0.5 0.5 0.5h6c0.276 0 0.5-0.224 0.5-0.5s-0.224-0.5-0.5-0.5z"></path>
<path d="M20 24h-6c-0.276 0-0.5 0.224-0.5 0.5s0.224 0.5 0.5 0.5h6c0.276 0 0.5-0.224 0.5-0.5s-0.224-0.5-0.5-0.5z"></path>
<path d="M14 23h2.5c0.276 0 0.5-0.224 0.5-0.5s-0.224-0.5-0.5-0.5h-2.5c-0.276 0-0.5 0.224-0.5 0.5s0.224 0.5 0.5 0.5z"></path>
<path d="M19 23c0.276 0 0.5-0.224 0.5-0.5s-0.224-0.5-0.5-0.5h-1c-0.276 0-0.5 0.224-0.5 0.5s0.224 0.5 0.5 0.5h1z"></path>
<path d="M26.75 6.5c-0.966 0-1.75 0.784-1.75 1.75v14.75c0.002 0.015 0.005 0.029 0.009 0.044-0.001 0.013-0.001 0.026 0 0.038l0.5 3c0.040 0.24 0.247 0.417 0.491 0.418h1.5c0.244-0 0.453-0.177 0.493-0.418l0.5-3c0.001-0.013 0.001-0.026 0-0.038 0.003-0.014 0.005-0.029 0.007-0.044v-14.75c0-0.966-0.784-1.75-1.75-1.75zM27.076 25.5h-0.653l-0.333-2h1.319l-0.333 2zM27.5 22.5h-1.5v-12h1.5v12zM27.5 9.5h-1.5v-1.25c0-0.414 0.336-0.75 0.75-0.75s0.75 0.336 0.75 0.75v1.25z"></path>
</symbol>
<symbol id="icon-mappoint" viewBox="0 0 32 32">
<path d="M26.371 11.556c0-1.362-0.268-2.71-0.79-3.969s-1.285-2.401-2.248-3.364c-0.963-0.963-2.106-1.727-3.364-2.248s-2.607-0.789-3.969-0.789c-1.362 0-2.71 0.268-3.969 0.789s-2.401 1.285-3.364 2.248c-0.963 0.963-1.727 2.106-2.248 3.364s-0.789 2.607-0.789 3.969c0 2.055 0.607 3.966 1.637 5.578h-0.012c3.496 5.474 8.745 13.681 8.745 13.681l8.745-13.681h-0.010c1.067-1.665 1.635-3.6 1.636-5.578zM16.001 16c-1.179 0-2.309-0.468-3.143-1.302s-1.302-1.964-1.302-3.143c0-1.179 0.468-2.309 1.302-3.143s1.964-1.302 3.143-1.302c1.179 0 2.309 0.468 3.143 1.302s1.302 1.964 1.302 3.143c0 1.179-0.468 2.309-1.302 3.143s-1.964 1.302-3.143 1.302z"></path>
</symbol>
<symbol id="icon-phone" viewBox="0 0 32 32">
<path d="M27.61 19.605c-0.154-1.067-0.978-1.899-2.038-2.147-4.123-0.966-5.157-3.341-5.331-5.974-0.731-0.136-2.032-0.283-4.24-0.283s-3.509 0.147-4.24 0.283c-0.174 2.634-1.208 5.008-5.331 5.974-1.061 0.25-1.885 1.080-2.038 2.147l-0.795 5.507c-0.28 1.939 1.144 3.688 3.125 3.688h18.56c1.979 0 3.405-1.749 3.125-3.688l-0.795-5.507zM16 24.787c-2.232 0-4.042-1.792-4.042-4s1.81-4 4.042-4c2.232 0 4.042 1.792 4.042 4s-1.811 4-4.042 4zM31.92 9.6c-0.038-2.4-6.147-6.398-15.92-6.4-9.774 0.002-15.883 4-15.92 6.4s0.034 5.523 4.056 5.003c4.706-0.61 4.416-2.253 4.416-4.602 0-1.638 3.827-2.034 7.448-2.034s7.446 0.395 7.448 2.034c0 2.349-0.29 3.992 4.416 4.602 4.021 0.52 4.093-2.603 4.056-5.003z"></path>
</symbol>
<symbol id="icon-play" viewBox="0 0 32 32">
<path fill="#fff" style="fill: var(--color1, #fff)" d="M16 0c-8.836 0-16 7.164-16 16s7.164 16 16 16c8.836 0 16-7.164 16-16s-7.164-16-16-16zM21.146 16.246l-7.8 5.675c-0.043 0.031-0.093 0.049-0.146 0.053s-0.105-0.007-0.152-0.031c-0.047-0.024-0.086-0.060-0.114-0.105s-0.042-0.096-0.042-0.149v-11.343c-0-0.053 0.014-0.105 0.042-0.15s0.067-0.082 0.114-0.106c0.047-0.024 0.1-0.035 0.152-0.031s0.103 0.023 0.146 0.054l7.8 5.671c0.037 0.026 0.067 0.061 0.088 0.101s0.032 0.085 0.032 0.13c0 0.045-0.011 0.090-0.032 0.13s-0.051 0.075-0.088 0.101z"></path>
</symbol>
<symbol id="icon-ribbon-design" viewBox="0 0 32 32">
<path d="M20.911 18.716l-4.5-6.5c-0.046-0.066-0.107-0.121-0.179-0.158s-0.151-0.057-0.232-0.057-0.161 0.020-0.232 0.057c-0.072 0.038-0.133 0.092-0.179 0.158l-4.5 6.5c-0.044 0.064-0.073 0.137-0.084 0.214s-0.004 0.155 0.021 0.229l1.281 3.842h-0.306c-0.133 0-0.26 0.053-0.354 0.146s-0.146 0.221-0.146 0.354v1.5c0 0.133 0.053 0.26 0.146 0.354s0.221 0.146 0.354 0.146h0.5v5.5c0 0.133 0.053 0.26 0.146 0.354s0.221 0.146 0.354 0.146h6c0.133 0 0.26-0.053 0.354-0.146s0.146-0.221 0.146-0.354v-5.5h0.5c0.133 0 0.26-0.053 0.354-0.146s0.146-0.221 0.146-0.354v-1.5c0-0.133-0.053-0.26-0.146-0.354s-0.221-0.146-0.354-0.146h-0.306l1.281-3.842c0.025-0.074 0.032-0.152 0.021-0.229s-0.040-0.15-0.084-0.214zM16 18c0.099 0 0.196 0.029 0.278 0.084s0.146 0.133 0.184 0.224 0.048 0.192 0.028 0.289c-0.019 0.097-0.067 0.186-0.137 0.256s-0.159 0.118-0.256 0.137c-0.097 0.019-0.198 0.009-0.289-0.028s-0.169-0.102-0.224-0.184c-0.055-0.082-0.084-0.179-0.084-0.278 0-0.133 0.053-0.26 0.147-0.353s0.221-0.146 0.353-0.147zM18.5 30.5h-5v-5h5v5zM19.5 24.5h-7v-0.5h7v0.5zM18.639 23h-5.279l-1.308-3.921 3.447-4.979v2.899c0 0.028 0.003 0.056 0.008 0.084-0.335 0.116-0.618 0.348-0.798 0.653s-0.247 0.664-0.188 1.014c0.059 0.35 0.24 0.667 0.511 0.896s0.614 0.354 0.968 0.354 0.698-0.126 0.968-0.354c0.271-0.229 0.452-0.546 0.511-0.896s-0.008-0.709-0.188-1.014c-0.181-0.305-0.463-0.536-0.798-0.653 0.005-0.028 0.007-0.056 0.008-0.084v-2.899l3.447 4.979-1.308 3.921z"></path>
<path d="M31 6h-2c-0.133 0-0.26 0.053-0.354 0.146s-0.146 0.221-0.146 0.354v0.504c-0.021-0.003-0.042-0.004-0.063-0.004h-10.938v-0.5c0-0.133-0.053-0.26-0.146-0.354s-0.221-0.146-0.354-0.146h-0.5v-2.5h0.5c0.133 0 0.26-0.053 0.354-0.146s0.146-0.221 0.146-0.354v-2c0-0.133-0.053-0.26-0.146-0.354s-0.221-0.146-0.354-0.146h-2c-0.133 0-0.26 0.053-0.354 0.146s-0.146 0.221-0.146 0.354v2c0 0.133 0.053 0.26 0.146 0.354s0.221 0.146 0.354 0.146h0.5v2.5h-0.5c-0.133 0-0.26 0.053-0.354 0.146s-0.146 0.221-0.146 0.354v0.5h-11v-0.5c0-0.133-0.053-0.26-0.146-0.354s-0.221-0.146-0.354-0.146h-2c-0.133 0-0.26 0.053-0.354 0.146s-0.146 0.221-0.146 0.354v2c0 0.133 0.053 0.26 0.146 0.354s0.221 0.146 0.354 0.146h2c0.133 0 0.26-0.053 0.354-0.146s0.146-0.221 0.146-0.354v-0.5h8.266c-0.66 0.437-1.25 0.971-1.749 1.584-1.282 1.554-2.017 3.528-2.017 5.416h-0.5c-0.133 0-0.26 0.053-0.354 0.146s-0.146 0.221-0.146 0.354v2c0 0.133 0.053 0.26 0.146 0.354s0.221 0.146 0.354 0.146h2c0.133 0 0.26-0.053 0.354-0.146s0.146-0.221 0.146-0.354v-2c0-0.133-0.053-0.26-0.146-0.354s-0.221-0.146-0.354-0.146h-0.5c0-3.708 2.852-6.632 5.5-6.968v0.468c0 0.133 0.053 0.26 0.146 0.354s0.221 0.146 0.354 0.146h2c0.133 0 0.26-0.053 0.354-0.146s0.146-0.221 0.146-0.354v-0.469c1.354 0.161 2.653 0.972 3.702 2.325 1.021 1.316 1.669 3.019 1.781 4.644h-0.482c-0.133 0-0.26 0.053-0.354 0.146s-0.146 0.221-0.146 0.354v2c0 0.133 0.053 0.26 0.146 0.354s0.221 0.146 0.354 0.146h2c0.133 0 0.26-0.053 0.354-0.146s0.146-0.221 0.146-0.354v-2c0-0.133-0.053-0.26-0.146-0.354s-0.221-0.146-0.354-0.146h-0.516c-0.109-1.857-0.821-3.748-1.992-5.258-0.515-0.676-1.135-1.264-1.837-1.742h8.282c0.021-0 0.042-0.002 0.063-0.004v0.504c0 0.133 0.053 0.26 0.146 0.354s0.221 0.146 0.354 0.146h2c0.133 0 0.26-0.053 0.354-0.146s0.146-0.221 0.146-0.354v-2c0-0.133-0.053-0.26-0.146-0.354s-0.221-0.146-0.354-0.146zM2.5 8h-1v-1h1v1zM9 17h-1v-1h1v1zM15.5 1.5h1v1h-1v-1zM16.5 8h-1v-1h1v1zM23 16h1v1h-1v-1zM30.5 8h-1v-1h1v1z"></path>
</symbol>
<symbol id="icon-search" viewBox="0 0 32 32">
<path fill="#fff" style="fill: var(--color1, #fff)" d="M32 28.444l-9.163-9.163c1.694-2.574 2.372-5.686 1.904-8.732s-2.050-5.81-4.439-7.756-5.415-2.937-8.493-2.781c-3.078 0.157-5.988 1.45-8.167 3.629s-3.472 5.089-3.629 8.167c-0.157 3.078 0.834 6.104 2.781 8.493s4.71 3.971 7.756 4.439c3.046 0.468 6.157-0.21 8.732-1.904l9.163 9.163 3.556-3.556zM3.556 12.444c0-4.901 3.988-8.889 8.889-8.889s8.889 3.988 8.889 8.889c0 4.901-3.988 8.889-8.889 8.889s-8.889-3.988-8.889-8.889z"></path>
</symbol>
<symbol id="icon-subscribe__icon" viewBox="0 0 32 32">
<path d="M20.706 16l-7.059 4.075v-8.151l7.059 4.075z"></path>
<path fill="none" stroke="#000" style="stroke: var(--color2, #fff)" stroke-linejoin="miter" stroke-linecap="butt" stroke-miterlimit="4" stroke-width="1.8824" d="M8.941 3.774l21.176 12.226-21.176 12.226v-24.453z"></path>
</symbol>
<symbol id="icon-telegram" viewBox="0 0 32 32">
<path d="M28.442 3.378l-27.017 10.418c-1.844 0.741-1.833 1.769-0.338 2.228l6.936 2.164 16.049-10.126c0.759-0.462 1.452-0.213 0.882 0.293l-13.003 11.736-0.478 7.15c0.701 0 1.010-0.322 1.403-0.701l3.369-3.276 7.008 5.176c1.292 0.712 2.22 0.346 2.542-1.196l4.6-21.681c0.471-1.888-0.721-2.743-1.954-2.185z"></path>
</symbol>
<symbol id="icon-user" viewBox="0 0 32 32">
<path d="M16 0c2.122 0 4.157 0.843 5.657 2.343s2.343 3.535 2.343 5.657-0.843 4.157-2.343 5.657c-1.5 1.5-3.535 2.343-5.657 2.343s-4.157-0.843-5.657-2.343c-1.5-1.5-2.343-3.535-2.343-5.657s0.843-4.157 2.343-5.657c1.5-1.5 3.535-2.343 5.657-2.343zM16 20c8.84 0 16 3.58 16 8v4h-32v-4c0-4.42 7.16-8 16-8z"></path>
</symbol>
<symbol id="icon-vkontakte" viewBox="0 0 32 32">
<path d="M28.483 19.677c0 0 2.587 2.555 3.227 3.738 0.013 0.017 0.022 0.036 0.029 0.056 0.261 0.437 0.325 0.779 0.197 1.032-0.216 0.418-0.947 0.627-1.195 0.645h-4.573c-0.318 0-0.981-0.083-1.787-0.64-0.616-0.43-1.229-1.139-1.822-1.832-0.886-1.029-1.653-1.922-2.429-1.922-0.098-0-0.195 0.016-0.288 0.048-0.587 0.186-1.333 1.022-1.333 3.251 0 0.698-0.55 1.094-0.936 1.094h-2.094c-0.714 0-4.429-0.25-7.723-3.723-4.037-4.253-7.662-12.784-7.698-12.859-0.226-0.552 0.248-0.853 0.76-0.853h4.618c0.619 0 0.821 0.374 0.962 0.71 0.163 0.386 0.768 1.928 1.76 3.661 1.606 2.819 2.594 3.966 3.382 3.966 0.148 0 0.294-0.038 0.422-0.112 1.030-0.566 0.838-4.246 0.79-5.005 0-0.147-0.002-1.643-0.53-2.366-0.378-0.518-1.021-0.72-1.41-0.794 0.104-0.15 0.325-0.381 0.608-0.517 0.706-0.352 1.981-0.403 3.246-0.403h0.702c1.373 0.019 1.728 0.107 2.227 0.234 1.005 0.24 1.024 0.891 0.936 3.109-0.026 0.634-0.053 1.347-0.053 2.187 0 0.179-0.008 0.379-0.008 0.582-0.030 1.138-0.070 2.419 0.733 2.946 0.104 0.065 0.225 0.099 0.347 0.099 0.278 0 1.112 0 3.373-3.88 0.992-1.714 1.76-3.734 1.813-3.886 0.045-0.085 0.179-0.323 0.342-0.419 0.116-0.062 0.246-0.093 0.378-0.090h5.432c0.592 0 0.994 0.090 1.072 0.314 0.131 0.363-0.026 1.472-2.506 4.826-0.418 0.558-0.784 1.042-1.106 1.464-2.248 2.95-2.248 3.099 0.133 5.339z"></path>
</symbol>
<symbol id="icon-youtube" viewBox="0 0 32 32">
<path d="M30.527 8.698c-0.173-0.641-0.511-1.226-0.98-1.696s-1.054-0.808-1.696-0.98c-2.362-0.639-11.852-0.639-11.852-0.639s-9.49 0-11.852 0.639c-0.641 0.173-1.226 0.511-1.696 0.98s-0.808 1.054-0.98 1.696c-0.441 2.409-0.655 4.853-0.639 7.302-0.016 2.449 0.198 4.893 0.639 7.302 0.173 0.641 0.511 1.226 0.98 1.696s1.054 0.808 1.696 0.98c2.362 0.639 11.852 0.639 11.852 0.639s9.49 0 11.852-0.639c0.641-0.173 1.226-0.511 1.696-0.98s0.808-1.054 0.98-1.696c0.441-2.409 0.655-4.853 0.639-7.302 0.016-2.449-0.198-4.893-0.639-7.302zM12.967 20.55v-9.1l7.876 4.55-7.876 4.55z"></path>
</symbol>
</defs>
</svg>
